<svg width="103" height="76" fill="none" xmlns="http://www.w3.org/2000/svg"><path opacity=".48" d="M99.993 13.175c-.944-5.21-5.441-9.005-10.658-10.19C81.521 1.33 67.065.146 51.426.146c-15.64 0-30.317 1.184-38.137 2.84-5.21 1.181-9.716 4.739-10.66 10.19A155.44 155.44 0 00.73 38.049a128.939 128.939 0 002.13 24.877c.953 5.21 5.45 9.005 10.658 10.189 8.294 1.656 22.504 2.84 38.149 2.84 15.644 0 29.854-1.185 38.146-2.842 5.21-1.184 9.707-4.739 10.657-10.19a181.639 181.639 0 002.373-24.874 165.77 165.77 0 00-2.85-24.874zm-61.357 41.46V21.466l28.902 16.582-28.902 16.585z" fill="#000"/><path d="M38.648 21.508v33.18S67.675 37.91 67.605 37.985c-.07.074-28.957-16.478-28.957-16.478z" fill="#fff"/></svg>